<?xml version="1.0" standalone="no"?>
<!DOCTYPE svg PUBLIC "-//W3C//DTD SVG 20010904//EN"
 "http://www.w3.org/TR/2001/REC-SVG-20010904/DTD/svg10.dtd">
<svg version="1.0" xmlns="http://www.w3.org/2000/svg"
 width="260.000000pt" height="260.000000pt" viewBox="0 0 260.000000 260.000000"
 preserveAspectRatio="xMidYMid meet">
<metadata>
Created by potrace 1.14, written by Peter Selinger 2001-2017
</metadata>
<g transform="translate(0.000000,260.000000) scale(0.100000,-0.100000)"
fill="#000000" stroke="none">
<path d="M1636 2044 c-92 -18 -191 -57 -268 -106 -70 -45 -485 -449 -525 -512
-33 -52 -36 -133 -5 -191 11 -22 61 -80 110 -128 l89 -88 106 105 c59 57 107
107 107 111 0 4 -9 18 -20 32 -11 15 -20 41 -20 60 0 32 14 49 153 188 163
162 226 204 327 221 263 42 491 -150 492 -413 0 -72 -35 -203 -54 -203 -4 0
-8 -7 -8 -15 0 -23 -105 -122 -157 -148 -74 -37 -115 -48 -189 -49 -69 -1
-137 13 -184 37 -24 12 -29 8 -138 -100 l-113 -113 28 -20 c51 -36 131 -71
210 -94 149 -42 365 -23 494 42 l39 20 0 135 0 135 38 0 37 0 -1 -110 c0 -60
2 -110 5 -110 3 0 16 8 29 18 l23 18 0 371 0 371 30 4 c16 3 33 0 37 -6 4 -6
7 -156 7 -333 0 -178 2 -323 5 -323 3 0 15 15 28 34 23 33 23 41 22 224 l-1
190 38 -1 38 -2 0 -112 c0 -61 3 -109 6 -107 6 3 23 64 36 124 12 57 5 237
-11 299 -101 379 -465 614 -840 545z"/>
<path d="M620 2024 c-269 -80 -468 -300 -519 -578 -14 -74 -7 -244 13 -315 18
-64 26 -74 27 -35 0 16 1 67 2 114 l2 85 35 0 35 0 0 -191 c0 -186 1 -192 25
-227 14 -20 27 -34 29 -31 2 2 4 153 4 334 l0 330 37 0 37 0 0 -370 c0 -344 1
-371 18 -390 35 -38 40 -25 40 90 l-1 110 37 0 37 0 0 -136 c-1 -152 -6 -141
81 -174 96 -37 179 -49 291 -45 139 5 230 31 355 104 78 45 516 476 545 536
23 48 26 119 7 164 -13 30 -191 221 -206 221 -4 0 -56 -48 -115 -106 l-108
-106 21 -22 c12 -13 24 -40 26 -60 5 -36 2 -41 -132 -177 -195 -197 -264 -238
-408 -244 -245 -8 -443 196 -430 444 10 167 130 321 291 371 85 26 207 22 279
-9 l49 -22 113 113 113 114 -55 33 c-52 32 -152 73 -212 87 -16 4 -84 8 -153
10 -109 2 -136 0 -210 -22z"/>
</g>
</svg>
